HIERARCHY
ROOT Hips
{
    OFFSET   0.000000   0.000000   0.000000
    CHANNELS 6 Xposition Yposition Zposition Zrotation Xrotation Yrotation
    JOINT Chest
    {
        OFFSET   0.000000   8.007230   0.000000
        CHANNELS 3 Zrotation Xrotation Yrotation
        JOINT Chest2
        {
            OFFSET   0.000000  22.077100   0.000000
            CHANNELS 3 Zrotation Xrotation Yrotation
            JOINT Neck
            {
                OFFSET   0.000000  23.255100   0.000000
                CHANNELS 3 Zrotation Xrotation Yrotation
                JOINT Head
                {
                    OFFSET   0.000000  14.370100   1.956600
                    CHANNELS 3 Zrotation Xrotation Yrotation
                    End Site
                    {
                        OFFSET   0.000000  19.566000   0.000000
                    }
                }
            }
            JOINT LeftCollar
            {
                OFFSET   3.911900  19.017000  -0.467063
                CHANNELS 3 Zrotation Xrotation Yrotation
                JOINT LeftShoulder
                {
                    OFFSET  10.383700   0.000000   0.000000
                    CHANNELS 3 Zrotation Xrotation Yrotation
                    JOINT LeftElbow
                    {
                        OFFSET  26.662100   0.001193   0.000980
                        CHANNELS 3 Zrotation Xrotation Yrotation
                        JOINT LeftWrist
                        {
                            OFFSET  28.869000  -0.000059  -0.000082
                            CHANNELS 3 Zrotation Xrotation Yrotation
                            JOINT LeftFinger0
                            {
                                OFFSET   2.044650  -2.323450   3.252850
                                CHANNELS 3 Zrotation Xrotation Yrotation
                                JOINT LeftFinger01
                                {
                                    OFFSET   3.088130   0.000000   0.000000
                                    CHANNELS 3 Zrotation Xrotation Yrotation
                                    JOINT LeftFinger02
                                    {
                                        OFFSET   2.639460   0.000000   0.000000
                                        CHANNELS 3 Zrotation Xrotation Yrotation
                                        End Site
                                        {
                                            OFFSET   2.582190   0.000000   0.000000
                                        }
                                    }
                                }
                            }
                            JOINT LeftFinger1
                            {
                                OFFSET   8.364480   0.000000   3.252850
                                CHANNELS 3 Zrotation Xrotation Yrotation
                                JOINT LeftFinger11
                                {
                                    OFFSET   4.646930   0.000000   0.000000
                                    CHANNELS 3 Zrotation Xrotation Yrotation
                                    JOINT LeftFinger12
                                    {
                                        OFFSET   2.323470   0.000000   0.000000
                                        CHANNELS 3 Zrotation Xrotation Yrotation
                                        End Site
                                        {
                                            OFFSET   2.273050   0.000000   0.000000
                                        }
                                    }
                                }
                            }
                            JOINT LeftFinger2
                            {
                                OFFSET   8.364490   0.000016   1.078090
                                CHANNELS 3 Zrotation Xrotation Yrotation
                                JOINT LeftFinger21
                                {
                                    OFFSET   5.111610   0.000000   0.000000
                                    CHANNELS 3 Zrotation Xrotation Yrotation
                                    JOINT LeftFinger22
                                    {
                                        OFFSET   2.788150   0.000016   0.000000
                                        CHANNELS 3 Zrotation Xrotation Yrotation
                                        End Site
                                        {
                                            OFFSET   2.727660   0.000000   0.000000
                                        }
                                    }
                                }
                            }
                            JOINT LeftFinger3
                            {
                                OFFSET   7.899780   0.000015  -1.078090
                                CHANNELS 3 Zrotation Xrotation Yrotation
                                JOINT LeftFinger31
                                {
                                    OFFSET   4.646930   0.000000   0.000000
                                    CHANNELS 3 Zrotation Xrotation Yrotation
                                    JOINT LeftFinger32
                                    {
                                        OFFSET   2.323470   0.000000   0.000000
                                        CHANNELS 3 Zrotation Xrotation Yrotation
                                        End Site
                                        {
                                            OFFSET   2.273050   0.000000   0.000000
                                        }
                                    }
                                }
                            }
                            JOINT LeftFinger4
                            {
                                OFFSET   7.435090   0.000000  -3.252850
                                CHANNELS 3 Zrotation Xrotation Yrotation
                                JOINT LeftFinger41
                                {
                                    OFFSET   3.717550   0.000000   0.000000
                                    CHANNELS 3 Zrotation Xrotation Yrotation
                                    JOINT LeftFinger42
                                    {
                                        OFFSET   1.858770   0.000000   0.000000
                                        CHANNELS 3 Zrotation Xrotation Yrotation
                                        End Site
                                        {
                                            OFFSET   1.818440   0.000000   0.000000
                                        }
                                    }
                                }
                            }
                        }
                    }
                }
            }
            JOINT RightCollar
            {
                OFFSET  -3.911910  19.017000  -0.467062
                CHANNELS 3 Zrotation Xrotation Yrotation
                JOINT RightShoulder
                {
                    OFFSET -10.383700   0.000014   0.000000
                    CHANNELS 3 Zrotation Xrotation Yrotation
                    JOINT RightElbow
                    {
                        OFFSET -26.662100   0.001225   0.001091
                        CHANNELS 3 Zrotation Xrotation Yrotation
                        JOINT RightWrist
                        {
                            OFFSET -28.869000  -0.000020  -0.000085
                            CHANNELS 3 Zrotation Xrotation Yrotation
                            JOINT RightFinger0
                            {
                                OFFSET  -2.044650  -2.323490   3.252850
                                CHANNELS 3 Zrotation Xrotation Yrotation
                                JOINT RightFinger01
                                {
                                    OFFSET  -3.088130   0.000000   0.000000
                                    CHANNELS 3 Zrotation Xrotation Yrotation
                                    JOINT RightFinger02
                                    {
                                        OFFSET  -2.639460   0.000000   0.000000
                                        CHANNELS 3 Zrotation Xrotation Yrotation
                                        End Site
                                        {
                                            OFFSET  -2.582190   0.000000   0.000000
                                        }
                                    }
                                }
                            }
                            JOINT RightFinger1
                            {
                                OFFSET  -8.364480   0.000000   3.252850
                                CHANNELS 3 Zrotation Xrotation Yrotation
                                JOINT RightFinger11
                                {
                                    OFFSET  -4.646930   0.000000   0.000000
                                    CHANNELS 3 Zrotation Xrotation Yrotation
                                    JOINT RightFinger12
                                    {
                                        OFFSET  -2.323470   0.000000   0.000000
                                        CHANNELS 3 Zrotation Xrotation Yrotation
                                        End Site
                                        {
                                            OFFSET  -2.273050   0.000000   0.000000
                                        }
                                    }
                                }
                            }
                            JOINT RightFinger2
                            {
                                OFFSET  -8.364480   0.000000   1.078090
                                CHANNELS 3 Zrotation Xrotation Yrotation
                                JOINT RightFinger21
                                {
                                    OFFSET  -5.111620   0.000000   0.000000
                                    CHANNELS 3 Zrotation Xrotation Yrotation
                                    JOINT RightFinger22
                                    {
                                        OFFSET  -2.788160   0.000000   0.000000
                                        CHANNELS 3 Zrotation Xrotation Yrotation
                                        End Site
                                        {
                                            OFFSET  -2.727660   0.000000   0.000000
                                        }
                                    }
                                }
                            }
                            JOINT RightFinger3
                            {
                                OFFSET  -7.899780   0.000000  -1.078090
                                CHANNELS 3 Zrotation Xrotation Yrotation
                                JOINT RightFinger31
                                {
                                    OFFSET  -4.646930   0.000000   0.000000
                                    CHANNELS 3 Zrotation Xrotation Yrotation
                                    JOINT RightFinger32
                                    {
                                        OFFSET  -2.323470   0.000000   0.000000
                                        CHANNELS 3 Zrotation Xrotation Yrotation
                                        End Site
                                        {
                                            OFFSET  -2.273050   0.000000   0.000000
                                        }
                                    }
                                }
                            }
                            JOINT RightFinger4
                            {
                                OFFSET  -7.435090   0.000000  -3.252850
                                CHANNELS 3 Zrotation Xrotation Yrotation
                                JOINT RightFinger41
                                {
                                    OFFSET  -3.717550   0.000000   0.000000
                                    CHANNELS 3 Zrotation Xrotation Yrotation
                                    JOINT RightFinger42
                                    {
                                        OFFSET  -1.858760   0.000000   0.000000
                                        CHANNELS 3 Zrotation Xrotation Yrotation
                                        End Site
                                        {
                                            OFFSET  -1.818440   0.000000   0.000000
                                        }
                                    }
                                }
                            }
                        }
                    }
                }
            }
        }
    }
    JOINT LeftHip
    {
        OFFSET   9.783030   0.000000   0.000000
        CHANNELS 3 Zrotation Xrotation Yrotation
        JOINT LeftKnee
        {
            OFFSET   0.000063 -41.789100   0.000608
            CHANNELS 3 Zrotation Xrotation Yrotation
            JOINT LeftAnkle
            {
                OFFSET   0.000048 -41.133200  -0.000184
                CHANNELS 3 Zrotation Xrotation Yrotation
                JOINT LeftToe
                {
                    OFFSET   0.000000  -6.358960  14.674500
                    CHANNELS 3 Zrotation Xrotation Yrotation
                    End Site
                    {
                        OFFSET   0.000000   0.000000   3.913200
                    }
                }
            }
        }
    }
    JOINT RightHip
    {
        OFFSET  -9.783030   0.000000   0.000000
        CHANNELS 3 Zrotation Xrotation Yrotation
        JOINT RightKnee
        {
            OFFSET   0.000071 -41.789100   0.001239
            CHANNELS 3 Zrotation Xrotation Yrotation
            JOINT RightAnkle
            {
                OFFSET   0.000037 -41.133200  -0.000166
                CHANNELS 3 Zrotation Xrotation Yrotation
                JOINT RightToe
                {
                    OFFSET   0.000000  -6.358960  14.674500
                    CHANNELS 3 Zrotation Xrotation Yrotation
                    End Site
                    {
                        OFFSET   0.000000   0.000000   3.913200
                    }
                }
            }
        }
    }
}
MOTION
Frames: 6
Frame Time:   0.016667
 -2.019000  89.538300  -0.811274  -2.898890  -7.773850  -7.744290   0.583370   5.318120   0.255111   1.150330  10.638500   0.458550   1.581790  -0.445401   0.006572   2.599060  -0.901168   8.830540  -4.738480  -1.155600   3.874870 -72.722200  24.747300  -3.398940  -1.400240  -3.390660 -19.587400  15.682300  -9.594040   4.858810  36.618100  31.014700 -60.788600 -34.505800   0.001107   0.000784 -12.252900   0.004104  -0.002032 -31.258500   5.292660  -8.638780 -25.902600  -0.004803  -0.008436 -18.130800  -0.002536  -0.013218 -28.748700   1.879120  -3.409240 -43.090100  -0.002536   0.005840 -28.696000  -0.005963  -0.004398 -28.626500   1.581410  -2.894120 -38.384300  -0.008172   0.000084 -25.563900  -0.003631  -0.003789 -33.160100   0.643577  -0.987535 -49.748200  -0.001682  -0.003297 -33.132400  -0.003771  -0.005138  10.443600   1.714100  11.076200  64.368800  23.480000  -3.382090  -5.294510   0.348596  20.765300 -12.552600 -18.055700   3.522830 -34.836600  31.047900  71.785300  31.340900   0.005434  -0.003236  10.670500   0.000256  -0.003782  29.094200   9.471840  16.471200  24.930000  -0.000779  -0.005797  17.451000   0.005981  -0.001159  28.389000   5.011550   9.181310  41.965700  -0.002855  -0.002550  27.949100  -0.002479  -0.003879  28.165800   2.444940   4.552940  33.950800  -0.001236  -0.012590  22.611200  -0.014278  -0.005199  35.363300   0.146818   0.215454  53.045800  -0.003455  -0.005500  35.328500  -0.006584   0.001218   2.629530  10.918900   4.797320   0.885770   0.041144   9.900810  -1.855690  -3.195900   2.048620  -0.000000   0.000000  -0.000000   2.820400   9.520720   1.555890   0.326269   1.241590  -6.999910  -1.021330  -3.505500   1.655260   0.000000   0.000000   0.000000
 -2.015680  89.538300  -0.815137  -2.908180  -7.806090  -7.744650   0.583087   5.339960   0.250739   1.150270  10.682100   0.449571   1.574910  -0.440163   0.006597   2.587730  -0.890793   8.805760  -4.727130  -1.174380   3.885360 -72.708400  24.799100  -3.446110  -1.391460  -3.418570 -19.568900  15.683800  -9.597640   4.864290  36.621000  31.021100 -60.795400 -34.514100   0.001075   0.000779 -12.257100   0.004093  -0.002057 -31.261200   5.292670  -8.633560 -25.904700  -0.004769  -0.008450 -18.132700  -0.002519  -0.013240 -28.748700   1.879080  -3.408950 -43.081000  -0.002537   0.005838 -28.696100  -0.005963  -0.004364 -28.626500   1.581410  -2.894120 -38.377900  -0.008174   0.000080 -25.559600  -0.003629  -0.003760 -33.153400   0.643550  -0.987613 -49.738200  -0.001682  -0.003277 -33.125700  -0.003772  -0.005121  10.510000   1.642550  11.139900  64.389400  23.532300  -3.467900  -5.436140   0.372023  20.857600 -12.515700 -17.785300   3.578770 -34.842800  31.594800  72.456900  31.359100   0.005440  -0.003240  10.679600   0.000253  -0.003788  29.053600   9.541620  16.594800  24.924800  -0.000802  -0.005684  17.447400   0.005983  -0.001316  28.386700   5.041020   9.233870  41.930900  -0.008025  -0.007137  27.925900  -0.007154  -0.003879  28.158700   2.511880   4.676090  33.934700  -0.005038  -0.012590  22.600500  -0.014470  -0.005199  35.361700   0.147861   0.214143  53.043700  -0.005554  -0.005470  35.327100  -0.006585   0.001268   2.633020  10.931100   4.799170   0.883667   0.075474   9.900570  -1.853700  -3.214350   2.039910   0.000000   0.000000   0.000000   2.827180   9.551410   1.556240   0.320673   1.242090  -7.016840  -1.014290  -3.506280   1.665860  -0.000000   0.000000   0.000000
 -2.009380  89.538300  -0.821499  -2.925070  -7.863250  -7.745390   0.583369   5.379140   0.239450   1.151710  10.760400   0.426453   1.561300  -0.432028   0.006650   2.565340  -0.874571   8.763750  -4.708370  -1.201880   3.899640 -72.680800  24.895500  -3.530540  -1.388160  -3.464920 -19.535300  15.685900  -9.603540   4.872580  36.619500  31.035700 -60.811200 -34.530400   0.000999   0.000749 -12.265200   0.004067  -0.002111 -31.270100   5.292700  -8.625030 -25.911900  -0.004695  -0.008483 -18.138300  -0.002478  -0.013292 -28.748700   1.878980  -3.408670 -43.071900  -0.002539   0.005836 -28.696300  -0.005965  -0.004288 -28.626500   1.581400  -2.894120 -38.371500  -0.008177   0.000072 -25.555400  -0.003628  -0.003696 -33.146700   0.643489  -0.987691 -49.728100  -0.001680  -0.003226 -33.119000  -0.003774  -0.005080  10.606400   1.532580  11.229600  64.378400  23.583100  -3.620700  -5.703170   0.515090  21.162300 -12.351600 -16.922900   3.706980 -34.833000  32.374400  73.456000  31.486300   0.005451  -0.003267  10.743100   0.000251  -0.003797  28.987500   9.640290  16.809600  24.888400  -0.000843  -0.005571  17.421900   0.005993  -0.002079  28.377200   5.091950   9.327480  41.687200  -0.015492  -0.014465  27.763700  -0.013588  -0.003880  28.144600   2.616870   4.874200  33.821900  -0.010355  -0.012589  22.525300  -0.014662  -0.005202  35.350000   0.155161   0.212831  53.029400  -0.009246  -0.005418  35.317500  -0.006586   0.001318   2.638420  10.969000   4.803300   0.881564   0.109804   9.900330  -1.847520  -3.232800   2.026600  -0.000000   0.000000  -0.000000   2.838790   9.606300   1.556700   0.312047   1.243090  -7.044600  -1.002230  -3.507040   1.684700  -0.000000   0.000000   0.000000
 -2.002570  89.540700  -0.826442  -2.941170  -7.914740  -7.746220   0.584738   5.415130   0.223279   1.156080  10.832300   0.393382   1.544630  -0.427586   0.006713   2.537980  -0.865441   8.729420  -4.694490  -1.213900   3.903810 -72.649300  24.997300  -3.612300  -1.399800  -3.503300 -19.502200  15.686800  -9.609190   4.878340  36.607100  31.046700 -60.842900 -34.550100   0.000884   0.000675 -12.275000   0.004030  -0.002180 -31.289200   5.292710  -8.617030 -25.927200  -0.004599  -0.008535 -18.149100  -0.002414  -0.013372 -28.748700   1.878840  -3.409500 -43.079500  -0.002538   0.005842 -28.696300  -0.005966  -0.004182 -28.626500   1.581400  -2.894990 -38.387300  -0.008177   0.000070 -25.566100  -0.003628  -0.003610 -33.153200   0.643402  -0.987671 -49.738700  -0.001674  -0.003148 -33.125500  -0.003772  -0.005021  10.656200   1.466060  11.270300  64.277500  23.558400  -3.755570  -5.965710   0.849666  21.678500 -12.102400 -15.364200   3.880710 -34.596700  32.802300  73.917200  32.066800   0.005461  -0.003299  11.033300   0.000256  -0.003800  28.853000   9.689670  16.990200  24.786900  -0.000895  -0.006269  17.350900   0.006015  -0.003838  28.360600   5.131800   9.402900  41.074100  -0.019511  -0.020844  27.355400  -0.015633  -0.004454  28.092300   2.689180   5.019150  33.408500  -0.012605  -0.012064  22.250000  -0.014069  -0.006945  35.191800   0.194441   0.262795  52.794800  -0.012882  -0.005361  35.161300  -0.006662   0.001305   2.641100  11.041500   4.809530   0.882983   0.055294   9.901120  -1.835490  -3.209420   2.017820  -0.000000   0.000000  -0.000000   2.848650   9.656310   1.555840   0.306882   1.244670  -7.065770  -0.992181  -3.505960   1.701010  -0.000000   0.000000   0.000000
 -1.995070  89.544900  -0.831268  -2.959640  -7.973100  -7.747280   0.586803   5.456850   0.199770   1.162350  10.915500   0.345421   1.527980  -0.422225   0.006786   2.510610  -0.854402   8.692700  -4.679330  -1.225470   3.905270 -72.611500  25.104900  -3.696930  -1.411780  -3.538190 -19.466400  15.683400  -9.612530   4.881300  36.596300  31.059100 -60.887300 -34.569600   0.000756   0.000589 -12.284800   0.003985  -0.002260 -31.308800   5.292720  -8.612350 -25.943100  -0.004488  -0.008599 -18.160100  -0.002342  -0.013468 -28.748700   1.878700  -3.411390 -43.087100  -0.002536   0.005852 -28.696000  -0.005970  -0.004061 -28.626400   1.581400  -2.896460 -38.406400  -0.008180   0.000062 -25.578700  -0.003632  -0.003508 -33.163200   0.643308  -0.987530 -49.753100  -0.001671  -0.003051 -33.135500  -0.003770  -0.004948  10.682300   1.406480  11.284800  64.114200  23.474000  -3.917180  -6.317510   1.297690  22.466800 -11.559600 -13.321500   4.102470 -34.562000  33.037100  74.187500  32.728500   0.005468  -0.003431  11.364200   0.000260  -0.003801  28.540700   9.703880  17.199900  24.559000  -0.000929  -0.008053  17.191300   0.006044  -0.006005  28.320000   5.183310   9.509780  40.088400  -0.021233  -0.024481  26.698900  -0.016550  -0.005449  27.980800   2.749570   5.152420  32.686000  -0.013342  -0.011264  21.768900  -0.012518  -0.009789  34.866200   0.268106   0.374396  52.306900  -0.016203  -0.005326  34.836400  -0.006776   0.001217   2.644740  11.124900   4.815610   0.884428   0.000644   9.901910  -1.822540  -3.186030   2.011800  -0.000000   0.000000   0.000000   2.859710   9.714260   1.552870   0.302026   1.245700  -7.086640  -0.981282  -3.502990   1.721130  -0.000000   0.000000   0.000000
 -1.987610  89.548300  -0.835275  -2.981310  -8.040200  -7.750260   0.589315   5.505620   0.169006   1.171050  11.012700   0.282715   1.515990  -0.412341   0.006865   2.489770  -0.834431   8.649520  -4.660610  -1.240120   3.906200 -72.569900  25.203000  -3.777380  -1.430060  -3.559610 -19.430300  15.665200  -9.595590   4.876670  36.594500  31.082400 -60.934000 -34.581500   0.000622   0.000500 -12.290700   0.003933  -0.002350 -31.318500   5.292710  -8.615420 -25.950900  -0.004363  -0.008671 -18.165600  -0.002272  -0.013574 -28.748600   1.878600  -3.414230 -43.070700  -0.002532   0.005858 -28.685000  -0.005978  -0.003938 -28.626400   1.581390  -2.897960 -38.409600  -0.008192   0.000027 -25.580500  -0.003643  -0.003384 -33.170700   0.643217  -0.987025 -49.757700  -0.001672  -0.002943 -33.143000  -0.003771  -0.004865  10.688400   1.346740  11.280800  63.891100  23.304000  -4.127390  -6.793160   1.854530  23.587600 -10.521400 -10.925700   4.383830 -34.693000  33.022600  74.294800  32.963700   0.005425  -0.004509  11.481900   0.000254  -0.003674  28.024400   9.653100  17.468100  24.149200  -0.000925  -0.010941  16.904500   0.006077  -0.008111  28.233300   5.265690   9.693750  38.653700  -0.017213  -0.020853  25.743400  -0.017714  -0.005887  27.803400   2.785740   5.262560  31.696700  -0.010538  -0.010685  21.110000  -0.009854  -0.011953  34.435300   0.366611   0.527187  51.660300  -0.018120  -0.005347  34.405700  -0.006810  -0.000231   2.652270  11.197100   4.818470   0.884864   0.000479   9.901740  -1.812960  -3.186650   2.009970  -0.000000   0.000000  -0.000000   2.872460   9.783850   1.547220   0.296916   1.242360  -7.108900  -0.969058  -3.497340   1.749910  -0.000000   0.000000   0.000000
